<?xml version="1.0" encoding="UTF-8"?>
<svg xmlns="http://www.w3.org/2000/svg" viewBox="0 0 600 600">
<path fill="#FFFFFF" 
filter="drop-shadow(0px 4px 6px rgba(0, 0, 0, 0.2))"
d="M406.65,521.35c-48.13-43.91-77.54-97.05-61.16-164.36,10.82-44.45,41.66-79.4,73.83-110.09.36-.35.68-.75.87-1.21,1.6-3.9.66-9.29-.26-14.12-.55-2.91-3.96-4.23-6.33-2.45-4.84,3.62-11.33,9.22-12.62,10.37-38.73,34.82-75.05,85.88-82.75,138.25-10.11,68.76,27.93,131.2,79.27,173.26.44.36.8.8,1.05,1.31,1.31,2.7.67,6-3,5.75-29.8-1.99-62.66,2.49-92.09-.01-6.44-.55-7.19-2.33-10.9-7.1-14.42-18.6-28.46-52.84-33.08-75.92-22.21-111.09,57.15-206.58,141.55-266.47,2.7-1.92,6.32-3.32,9.52-5.24,2.83-1.71,2.4-5.96-.69-7.13l-6.59-2.49c-1.1-.42-2.32-.33-3.35.24l-13.83,7.68c-104.8,65.17-195.74,184.81-151.88,314.68,3.68,10.89,12.66,24.89,15.12,34.94.69,2.82.62,3.82-1.15,5.33-.71.61-1.63.94-2.57.94l-83.22.3c-.46,0-.92-.06-1.34-.23-2.54-1-4.49-3.05-5.56-5.56-2.12-5-4.65-21.54-5.38-27.62-12.03-99.79,35.94-191.76,106.35-258.41,32.59-30.84,70.25-55.61,109.37-77.38,3.13-1.74,2.58-6.43-.89-7.35-2.8-.74-6.07-.64-8.51-.3-3.12.43-10.45,5.59-13.74,7.25-126.54,63.95-239.13,190.73-229.74,341.34.32,5.12,5.01,24.43,1.79,27.22-.9.78-4.77,1.17-6.22,1.28-24.92,1.91-52.28-1.42-77.49-.12-.33.02-.66,0-.98-.07-9.56-2.16-3.86-19.44-3.19-26.47,14.34-149.35,118.52-265.78,245.77-335.23,40.07-21.87,82.95-38.56,125.05-55.95,4.84-2,16.58-3.99,17.34-9.66,1.84-25.58-2.62-54.92-.04-80.04.07-.68.17-1.53.34-2.39.6-2.93,4.15-4.17,6.44-2.25,3.46,2.9,8.03,8.27,9.73,10.12,15.76,17.18,29.05,36.57,44.96,53.55,1.07,1.14,2.72,1.59,4.19,1.05,2.06-.75,4.23-2.35,6.47-2.96,21.2-5.7,40.83-13.84,61.61-20.39,3.86-1.22,17.22-3.65,13.72,3.7l-43.02,69.34c-.76,1.22-.79,2.76-.11,4.02.92,1.69,1.79,3.4,2.84,5.02,10.92,16.73,25.61,33.31,37.24,49.76,2.44,3.46,12.37,15.9,5.86,17.75-2.75.78-31.8-6.95-37.3-8.32-10.67-2.66-21.3-5.35-32.02-7.98-4.47-1.09-9.67-4.94-14.41-3.13-.68.26-1.25.73-1.69,1.31l-53.27,71.36c-82.42,115.41,4.49,206.78,111.43,252.4,2.48,1.06,13.35,4.76,20.78,7.89,3.82,1.61,2.97,7.26-1.16,7.65-.03,0-.07,0-.1,0-30.86,2.9-66.42-1.97-97.85-.33-.62.03-1.25-.08-1.82-.33-19.2-8.46-35.87-22.04-51.21-36.03Z"/>
</svg>